# xmcd
#
# Track frame offsets: 
#        150
#        42017
#        88440
#        132700
#        178207
#        219807
#
# Disc length: 3549 seconds
#
# Revision: 0
# Processed by: cddbd v1.5.1PL2 Copyright (c) Steve Scherf et al.
# Submitted via: ExactAudioCopy v0.95a5
#
DISCID=560ddb06
DTITLE=J.R.R. Tolkien - Taru Sormusten Herrasta -Kaksi Tornia [CD15)
DYEAR=2003
DGENRE=Kuunnelma
TTITLE0=Kaksi Tornia [CD15) Track01
TTITLE1=Kaksi Tornia [CD15) Track02
TTITLE2=Kaksi Tornia [CD15) Track03
TTITLE3=Kaksi Tornia [CD15) Track04
TTITLE4=Kaksi Tornia [CD15) Track05
TTITLE5=Kaksi Tornia [CD15) Track06
EXTD=
EXTT0=
EXTT1=
EXTT2=
EXTT3=
EXTT4=
EXTT5=
PLAYORDER=
